<svg width="25" height="26" viewBox="0 0 25 26" fill="none" xmlns="http://www.w3.org/2000/svg">
<path d="M25 9.87498H20.7548L16.2949 2.44168C16.0737 2.07243 15.5938 1.95188 15.223 2.1739C14.8529 2.39592 14.7332 2.87578 14.9552 3.24581L18.9327 9.87498H6.06736L10.0449 3.24576C10.2669 2.87573 10.1471 2.39587 9.77707 2.17385C9.40551 1.95182 8.92718 2.07238 8.70516 2.44163L4.24522 9.87493H0V11.4374H1.69564L3.68041 22.0247C3.88792 23.1333 4.85685 23.9375 5.98452 23.9375H19.0155C20.1432 23.9375 21.1121 23.1333 21.3188 22.0255L23.3043 11.4374H25.0001C25 11.4374 25 9.87498 25 9.87498ZM19.783 21.7379C19.7144 22.1072 19.3916 22.375 19.0155 22.375H5.98452C5.60838 22.375 5.28569 22.1072 5.21626 21.7372L3.28487 11.4374H21.7152L19.783 21.7379Z" fill="black"/>
</svg>
