<svg width="25" height="26" viewBox="0 0 25 26" fill="none" xmlns="http://www.w3.org/2000/svg">
<g clip-path="url(#clip0)">
<path d="M24.375 11.325C24.3743 11.3244 24.3737 11.3237 24.3731 11.3231L14.1751 1.12542C13.7404 0.690545 13.1625 0.451172 12.5477 0.451172C11.933 0.451172 11.3551 0.690545 10.9202 1.12542L0.72749 11.3179C0.724057 11.3214 0.720433 11.325 0.71719 11.3284C-0.175451 12.2262 -0.173925 13.6829 0.721577 14.5784C1.1307 14.9877 1.67087 15.2246 2.2486 15.2496C2.27225 15.2518 2.29591 15.253 2.31975 15.253H2.72601V22.7577C2.72601 24.2429 3.93451 25.4512 5.41977 25.4512H9.40957C9.81412 25.4512 10.142 25.1232 10.142 24.7188V18.835C10.142 18.1573 10.6934 17.6061 11.3711 17.6061H13.7244C14.4021 17.6061 14.9533 18.1573 14.9533 18.835V24.7188C14.9533 25.1232 15.2812 25.4512 15.6857 25.4512H19.6755C21.161 25.4512 22.3693 24.2429 22.3693 22.7577V15.253H22.7462C23.3607 15.253 23.9386 15.0136 24.3737 14.5785C25.2702 13.6817 25.2705 12.2224 24.375 11.325ZM23.3378 13.5429C23.1797 13.701 22.9695 13.7881 22.7462 13.7881H21.6368C21.2323 13.7881 20.9044 14.116 20.9044 14.5206V22.7577C20.9044 23.4352 20.3532 23.9864 19.6755 23.9864H16.4181V18.835C16.4181 17.3497 15.2098 16.1412 13.7244 16.1412H11.3711C9.88564 16.1412 8.67714 17.3497 8.67714 18.835V23.9864H5.41977C4.74228 23.9864 4.19086 23.4352 4.19086 22.7577V14.5206C4.19086 14.116 3.86299 13.7881 3.45844 13.7881H2.36819C2.35675 13.7874 2.3455 13.7868 2.33386 13.7866C2.11566 13.7828 1.911 13.6962 1.75765 13.5427C1.43149 13.2165 1.43149 12.6857 1.75765 12.3593C1.75784 12.3593 1.75784 12.3592 1.75803 12.359L1.7586 12.3584L11.9563 2.16111C12.1142 2.00299 12.3242 1.91602 12.5477 1.91602C12.7711 1.91602 12.9811 2.00299 13.1392 2.16111L23.3346 12.3563C23.3361 12.3578 23.3378 12.3593 23.3393 12.3609C23.6638 12.6876 23.6632 13.2173 23.3378 13.5429Z" fill="black"/>
</g>
<defs>
<clipPath id="clip0">
<rect width="25" height="25" fill="white" transform="translate(0 0.5)"/>
</clipPath>
</defs>
</svg>
