<svg width="25" height="25" viewBox="0 0 25 25" fill="none" xmlns="http://www.w3.org/2000/svg">
<g clip-path="url(#clip0)">
<path d="M24.2181 11.7192H14.3225C13.8912 11.7192 13.5413 11.3692 13.5413 10.938C13.5413 10.5067 13.8912 10.1567 14.3225 10.1567H24.2181C24.6493 10.1567 24.9993 10.5067 24.9993 10.938C24.9993 11.3692 24.6493 11.7192 24.2181 11.7192Z" fill="black"/>
<path d="M20.3118 15.6252C20.1117 15.6252 19.9118 15.5491 19.7596 15.3962C19.4545 15.0908 19.4545 14.5961 19.7596 14.2909L23.1138 10.9369L19.7596 7.58279C19.4545 7.27762 19.4545 6.78287 19.7596 6.47771C20.065 6.17235 20.5597 6.17235 20.8649 6.47771L24.771 10.3838C25.0762 10.689 25.0762 11.1837 24.771 11.4889L20.8649 15.395C20.7118 15.5491 20.5119 15.6252 20.3118 15.6252V15.6252Z" fill="black"/>
<path d="M8.33314 25C8.11017 25 7.89866 24.9688 7.68733 24.9032L1.41864 22.8147C0.565702 22.5168 0 21.722 0 20.8336V2.08416C0 0.935205 0.934381 0.000823975 2.08333 0.000823975C2.3061 0.000823975 2.51762 0.0321035 2.72914 0.0977143L8.99764 2.1862C9.85077 2.48411 10.4163 3.27888 10.4163 4.1673V22.9167C10.4163 24.0657 9.48209 25 8.33314 25ZM2.08333 1.56328C1.79686 1.56328 1.56245 1.79768 1.56245 2.08416V20.8336C1.56245 21.0554 1.71141 21.2616 1.92388 21.3356L8.1632 23.4147C8.20802 23.4292 8.26638 23.4376 8.33314 23.4376C8.61961 23.4376 8.85383 23.2032 8.85383 22.9167V4.1673C8.85383 3.94548 8.70487 3.7393 8.4924 3.6653L2.25308 1.58616C2.20826 1.57167 2.1499 1.56328 2.08333 1.56328V1.56328Z" fill="black"/>
<path d="M15.8848 8.33396C15.4535 8.33396 15.1035 7.98397 15.1035 7.55274V2.86538C15.1035 2.14767 14.5193 1.56328 13.8016 1.56328H2.08323C1.65199 1.56328 1.302 1.21329 1.302 0.78205C1.302 0.350812 1.65199 0.000823975 2.08323 0.000823975H13.8016C15.3818 0.000823975 16.666 1.28519 16.666 2.86538V7.55274C16.666 7.98397 16.316 8.33396 15.8848 8.33396Z" fill="black"/>
<path d="M13.8016 21.8751H9.63499C9.20375 21.8751 8.85376 21.5251 8.85376 21.0939C8.85376 20.6627 9.20375 20.3127 9.63499 20.3127H13.8016C14.5194 20.3127 15.1036 19.7283 15.1036 19.0106V14.3232C15.1036 13.892 15.4536 13.542 15.8848 13.542C16.316 13.542 16.666 13.892 16.666 14.3232V19.0106C16.666 20.5908 15.3818 21.8751 13.8016 21.8751V21.8751Z" fill="black"/>
</g>
<defs>
<clipPath id="clip0">
<rect width="25" height="25" fill="white"/>
</clipPath>
</defs>
</svg>
