<svg width="25" height="26" viewBox="0 0 25 26" fill="none" xmlns="http://www.w3.org/2000/svg">
<g clip-path="url(#clip0)">
<path d="M21.3389 16.6611C19.9774 15.2997 18.3569 14.2918 16.5888 13.6817C18.4825 12.3775 19.7266 10.1947 19.7266 7.72656C19.7266 3.74185 16.4847 0.5 12.5 0.5C8.51528 0.5 5.27344 3.74185 5.27344 7.72656C5.27344 10.1947 6.51753 12.3775 8.41123 13.6817C6.64316 14.2918 5.02266 15.2997 3.66118 16.6611C1.30024 19.0221 0 22.1611 0 25.5H1.95312C1.95312 19.6844 6.68442 14.9531 12.5 14.9531C18.3156 14.9531 23.0469 19.6844 23.0469 25.5H25C25 22.1611 23.6998 19.0221 21.3389 16.6611ZM12.5 13C9.59224 13 7.22656 10.6344 7.22656 7.72656C7.22656 4.81875 9.59224 2.45312 12.5 2.45312C15.4078 2.45312 17.7734 4.81875 17.7734 7.72656C17.7734 10.6344 15.4078 13 12.5 13Z" fill="black"/>
</g>
<defs>
<clipPath id="clip0">
<rect width="25" height="25" fill="white" transform="translate(0 0.5)"/>
</clipPath>
</defs>
</svg>
